<?xml version="1.0" encoding="UTF-8" standalone="no"?>
<!-- Created with Inkscape (http://www.inkscape.org/) -->

<svg
   xmlns:dc="http://purl.org/dc/elements/1.1/"
   xmlns:cc="http://creativecommons.org/ns#"
   xmlns:rdf="http://www.w3.org/1999/02/22-rdf-syntax-ns#"
   xmlns:svg="http://www.w3.org/2000/svg"
   xmlns="http://www.w3.org/2000/svg"
   xmlns:sodipodi="http://sodipodi.sourceforge.net/DTD/sodipodi-0.dtd"
   xmlns:inkscape="http://www.inkscape.org/namespaces/inkscape"
   width="1200"
   height="500"
   viewBox="0 0 317.49999 132.29167"
   version="1.1"
   id="svg8"
   inkscape:version="0.92.4 (5da689c313, 2019-01-14)"
   sodipodi:docname="case.svg">
  <defs
     id="defs2" />
  <sodipodi:namedview
     id="base"
     pagecolor="#ffffff"
     bordercolor="#666666"
     borderopacity="1.0"
     inkscape:pageopacity="0.0"
     inkscape:pageshadow="2"
     inkscape:zoom="1.4"
     inkscape:cx="386.92707"
     inkscape:cy="400.2002"
     inkscape:document-units="mm"
     inkscape:current-layer="text823"
     showgrid="false"
     inkscape:window-width="3840"
     inkscape:window-height="2100"
     inkscape:window-x="3840"
     inkscape:window-y="0"
     inkscape:window-maximized="1"
     units="px"
     height="500px" />
  <metadata
     id="metadata5">
    <rdf:RDF>
      <cc:Work
         rdf:about="">
        <dc:format>image/svg+xml</dc:format>
        <dc:type
           rdf:resource="http://purl.org/dc/dcmitype/StillImage" />
        <dc:title />
      </cc:Work>
    </rdf:RDF>
  </metadata>
  <g
     inkscape:label="Layer 1"
     inkscape:groupmode="layer"
     id="layer1"
     transform="translate(0,-164.70832)">
    <g
       id="g961"
       transform="matrix(1.9310545,0,0,1.9310545,-45.899815,-39.758899)">
      <path
         d="m 85.495754,162.97231 c 4.808297,0 9.251678,-1.91044 12.643244,-4.87269 l -3.048116,-6.05331 c -2.597339,2.2539 -5.516662,3.94968 -8.629175,3.94968 -5.302006,0 -8.886763,-4.95856 -7.598826,-11.37677 1.202073,-5.98892 6.203561,-10.53962 11.484101,-10.53962 2.876392,0 5.087349,1.41673 7.448567,4.93709 l 5.280541,-4.61511 c -2.25389,-4.35752 -6.504081,-7.01925 -11.20505,-7.34124 -7.706154,-0.4937 -18.159906,5.45227 -20.199138,17.53741 -1.781646,10.53961 4.078465,18.37456 13.823852,18.37456 z"
         style="font-style:italic;font-variant:normal;font-weight:500;font-stretch:normal;font-size:54.72006607px;line-height:1.25;font-family:'LEMON MILK';-inkscape-font-specification:'LEMON MILK, Medium Italic';font-variant-ligatures:normal;font-variant-caps:normal;font-variant-numeric:normal;font-feature-settings:normal;text-align:center;letter-spacing:0px;word-spacing:0px;writing-mode:lr-tb;text-anchor:middle;fill:#000000;fill-opacity:1;stroke:none;stroke-width:1.0990392"
         id="path875"
         inkscape:connector-curvature="0" />
      <path
         d="m 143.59008,162.97231 c 6.91192,0 11.78462,-4.1214 12.8579,-9.74539 0.85862,-4.42191 -0.98742,-7.70616 -6.41822,-10.99039 -2.76906,-1.67432 -5.45226,-2.76906 -5.06588,-5.21615 0.25758,-1.71725 1.91044,-3.2413 3.9926,-3.2413 1.9963,0 3.94967,1.20207 4.52925,3.3701 l 5.62399,-3.84234 c -0.90156,-3.58476 -4.55072,-6.35382 -9.18728,-6.35382 -5.77425,0 -10.77574,3.47742 -11.80609,8.60771 -1.18061,5.88157 2.27535,8.7365 5.62399,10.81866 2.42561,1.5026 6.13916,3.54182 5.64545,6.39675 -0.38638,2.14656 -2.83346,3.19838 -4.82976,3.19838 -2.57587,0 -5.04442,-1.45966 -6.69727,-4.42192 l -5.64546,3.86381 c 1.52407,4.37899 5.64546,7.5559 11.37678,7.5559 z"
         style="font-style:italic;font-variant:normal;font-weight:500;font-stretch:normal;font-size:54.72006607px;line-height:1.25;font-family:'LEMON MILK';-inkscape-font-specification:'LEMON MILK, Medium Italic';font-variant-ligatures:normal;font-variant-caps:normal;font-variant-numeric:normal;font-feature-settings:normal;text-align:center;letter-spacing:0px;word-spacing:0px;writing-mode:lr-tb;text-anchor:middle;fill:#000000;fill-opacity:1;stroke:none;stroke-width:1.0990392"
         id="path879"
         inkscape:connector-curvature="0" />
      <path
         d="m 183.94961,134.79215 1.33087,-6.84754 h -20.02741 l -6.71874,34.60257 h 20.02742 l 1.35233,-6.91193 h -12.87937 l 1.3738,-7.14805 h 10.94746 l 1.35233,-6.93339 h -10.94745 l 1.3094,-6.76166 z"
         style="font-style:italic;font-variant:normal;font-weight:500;font-stretch:normal;font-size:54.72006607px;line-height:1.25;font-family:'LEMON MILK';-inkscape-font-specification:'LEMON MILK, Medium Italic';font-variant-ligatures:normal;font-variant-caps:normal;font-variant-numeric:normal;font-feature-settings:normal;text-align:center;letter-spacing:0px;word-spacing:0px;writing-mode:lr-tb;text-anchor:middle;fill:#000000;fill-opacity:1;stroke:none;stroke-width:1.0990392"
         id="path881"
         inkscape:connector-curvature="0" />
      <rect
         y="165.14626"
         x="23.765499"
         height="1.26675"
         width="164.73686"
         id="rect819"
         style="fill:#000000;fill-opacity:1;stroke:none;stroke-width:0.36151311;stroke-miterlimit:4;stroke-dasharray:0.36151309, 0.36151309;stroke-dashoffset:0;stroke-opacity:0.27777782" />
      <g
         aria-label="Center for Accelerator Science and Education"
         style="font-style:normal;font-variant:normal;font-weight:normal;font-stretch:normal;font-size:5.8831954px;line-height:1.25;font-family:'LEMON MILK';-inkscape-font-specification:'LEMON MILK, Normal';font-variant-ligatures:normal;font-variant-caps:normal;font-variant-numeric:normal;font-feature-settings:normal;text-align:center;letter-spacing:0px;word-spacing:0px;writing-mode:lr-tb;text-anchor:middle;fill:#000000;fill-opacity:1;stroke:none;stroke-width:0.14708075"
         id="text823">
        <path
           d="m 27.668821,174.02879 c 0.689437,0 1.197896,-0.30163 1.597195,-0.69518 l -0.419407,-0.58602 c -0.318865,0.31599 -0.726782,0.55155 -1.200769,0.55155 -0.830197,0 -1.643159,-0.72104 -1.643159,-1.65465 0,-0.92787 0.801471,-1.66327 1.640286,-1.66327 0.453879,0 0.876159,0.21545 1.200769,0.54006 l 0.42228,-0.57166 c -0.453879,-0.44239 -1.008301,-0.69805 -1.608686,-0.70667 -1.301312,0 -2.390048,1.09448 -2.390048,2.39867 0,1.30705 1.088736,2.38717 2.401539,2.38717 z"
           style="font-style:normal;font-variant:normal;font-weight:normal;font-stretch:normal;font-size:5.8831954px;font-family:'LEMON MILK';-inkscape-font-specification:'LEMON MILK, Normal';font-variant-ligatures:normal;font-variant-caps:normal;font-variant-numeric:normal;font-feature-settings:normal;text-align:center;writing-mode:lr-tb;text-anchor:middle;stroke-width:0.14708075"
           id="path832" />
        <path
           d="m 32.601167,170.03867 v -0.71529 H 29.84342 v 4.63072 h 2.757747 v -0.72391 h -2.030966 v -1.2812 h 1.752319 v -0.72391 h -1.752319 v -1.18641 z"
           style="font-style:normal;font-variant:normal;font-weight:normal;font-stretch:normal;font-size:5.8831954px;font-family:'LEMON MILK';-inkscape-font-specification:'LEMON MILK, Normal';font-variant-ligatures:normal;font-variant-caps:normal;font-variant-numeric:normal;font-feature-settings:normal;text-align:center;writing-mode:lr-tb;text-anchor:middle;stroke-width:0.14708075"
           id="path834" />
        <path
           d="m 36.352854,169.31189 v 3.01916 l -2.955961,-3.0881 h -0.03735 v 4.7169 h 0.726782 v -3.01916 l 2.961706,3.09385 h 0.03447 v -4.72265 z"
           style="font-style:normal;font-variant:normal;font-weight:normal;font-stretch:normal;font-size:5.8831954px;font-family:'LEMON MILK';-inkscape-font-specification:'LEMON MILK, Normal';font-variant-ligatures:normal;font-variant-caps:normal;font-variant-numeric:normal;font-feature-settings:normal;text-align:center;writing-mode:lr-tb;text-anchor:middle;stroke-width:0.14708075"
           id="path836" />
        <path
           d="m 40.880156,169.32338 h -3.211627 v 0.72104 h 1.240986 v 3.90968 h 0.729655 v -3.90968 h 1.240986 z"
           style="font-style:normal;font-variant:normal;font-weight:normal;font-stretch:normal;font-size:5.8831954px;font-family:'LEMON MILK';-inkscape-font-specification:'LEMON MILK, Normal';font-variant-ligatures:normal;font-variant-caps:normal;font-variant-numeric:normal;font-feature-settings:normal;text-align:center;writing-mode:lr-tb;text-anchor:middle;stroke-width:0.14708075"
           id="path838" />
        <path
           d="m 44.21818,170.03867 v -0.71529 h -2.757747 v 4.63072 h 2.757747 v -0.72391 h -2.030966 v -1.2812 h 1.752319 v -0.72391 h -1.752319 v -1.18641 z"
           style="font-style:normal;font-variant:normal;font-weight:normal;font-stretch:normal;font-size:5.8831954px;font-family:'LEMON MILK';-inkscape-font-specification:'LEMON MILK, Normal';font-variant-ligatures:normal;font-variant-caps:normal;font-variant-numeric:normal;font-feature-settings:normal;text-align:center;writing-mode:lr-tb;text-anchor:middle;stroke-width:0.14708075"
           id="path840" />
        <path
           d="m 48.415128,173.9541 -1.347275,-1.85286 c 0.531441,-0.17236 0.916377,-0.69231 0.916377,-1.28982 0,-0.82445 -0.706673,-1.48804 -1.568469,-1.48804 h -1.4392 l 0.0029,4.63072 h 0.726781 v -1.79253 h 0.568786 l 1.246732,1.79253 z m -2.711785,-2.39579 v -1.51389 h 0.729654 c 0.430898,0 0.80147,0.31886 0.80147,0.74976 0,0.41366 -0.364827,0.767 -0.80147,0.76413 z"
           style="font-style:normal;font-variant:normal;font-weight:normal;font-stretch:normal;font-size:5.8831954px;font-family:'LEMON MILK';-inkscape-font-specification:'LEMON MILK, Normal';font-variant-ligatures:normal;font-variant-caps:normal;font-variant-numeric:normal;font-feature-settings:normal;text-align:center;writing-mode:lr-tb;text-anchor:middle;stroke-width:0.14708075"
           id="path842" />
        <path
           d="m 53.387692,170.0358 v -0.72391 h -2.757748 v 4.64796 h 0.726782 v -1.96203 h 1.752319 v -0.7239 h -1.752319 v -1.23812 z"
           style="font-style:normal;font-variant:normal;font-weight:normal;font-stretch:normal;font-size:5.8831954px;font-family:'LEMON MILK';-inkscape-font-specification:'LEMON MILK, Normal';font-variant-ligatures:normal;font-variant-caps:normal;font-variant-numeric:normal;font-feature-settings:normal;text-align:center;writing-mode:lr-tb;text-anchor:middle;stroke-width:0.14708075"
           id="path844" />
        <path
           d="m 56.039151,174.02879 c 1.318548,0 2.398666,-1.07437 2.398666,-2.3843 0,-1.32142 -1.080118,-2.40154 -2.395794,-2.40154 -1.318548,0 -2.39292,1.08012 -2.39292,2.40154 0,1.30993 1.074372,2.3843 2.390048,2.3843 z m 0,-0.7354 c -0.913504,0 -1.657522,-0.74402 -1.657522,-1.65465 0,-0.91637 0.744018,-1.66326 1.657522,-1.66326 0.913504,0 1.663266,0.74689 1.663266,1.66326 0,0.91063 -0.749762,1.65465 -1.663266,1.65465 z"
           style="font-style:normal;font-variant:normal;font-weight:normal;font-stretch:normal;font-size:5.8831954px;font-family:'LEMON MILK';-inkscape-font-specification:'LEMON MILK, Normal';font-variant-ligatures:normal;font-variant-caps:normal;font-variant-numeric:normal;font-feature-settings:normal;text-align:center;writing-mode:lr-tb;text-anchor:middle;stroke-width:0.14708075"
           id="path846" />
        <path
           d="m 62.548587,173.9541 -1.347275,-1.85286 c 0.531441,-0.17236 0.916377,-0.69231 0.916377,-1.28982 0,-0.82445 -0.706673,-1.48804 -1.568469,-1.48804 h -1.4392 l 0.0029,4.63072 h 0.726781 v -1.79253 h 0.568786 l 1.246732,1.79253 z m -2.711785,-2.39579 v -1.51389 h 0.729654 c 0.430898,0 0.80147,0.31886 0.80147,0.74976 0,0.41366 -0.364827,0.767 -0.80147,0.76413 z"
           style="font-style:normal;font-variant:normal;font-weight:normal;font-stretch:normal;font-size:5.8831954px;font-family:'LEMON MILK';-inkscape-font-specification:'LEMON MILK, Normal';font-variant-ligatures:normal;font-variant-caps:normal;font-variant-numeric:normal;font-feature-settings:normal;text-align:center;writing-mode:lr-tb;text-anchor:middle;stroke-width:0.14708075"
           id="path848" />
        <path
           d="m 67.995137,173.9541 h 0.787108 l -2.177472,-4.72551 h -0.04309 l -2.177472,4.72551 h 0.787107 l 0.315992,-0.7038 h 2.191835 z m -2.226307,-1.32716 0.815834,-1.80978 0.812961,1.80978 z"
           style="font-style:normal;font-variant:normal;font-weight:normal;font-stretch:normal;font-size:5.8831954px;font-family:'LEMON MILK';-inkscape-font-specification:'LEMON MILK, Normal';font-variant-ligatures:normal;font-variant-caps:normal;font-variant-numeric:normal;font-feature-settings:normal;text-align:center;writing-mode:lr-tb;text-anchor:middle;stroke-width:0.14708075"
           id="path850" />
        <path
           d="m 71.057386,174.02879 c 0.689437,0 1.197897,-0.30163 1.597195,-0.69518 l -0.419407,-0.58602 c -0.318865,0.31599 -0.726782,0.55155 -1.200769,0.55155 -0.830197,0 -1.643159,-0.72104 -1.643159,-1.65465 0,-0.92787 0.801471,-1.66327 1.640286,-1.66327 0.453879,0 0.876159,0.21545 1.200769,0.54006 l 0.42228,-0.57166 c -0.453879,-0.44239 -1.008301,-0.69805 -1.608686,-0.70667 -1.301312,0 -2.390048,1.09448 -2.390048,2.39867 0,1.30705 1.088736,2.38717 2.401539,2.38717 z"
           style="font-style:normal;font-variant:normal;font-weight:normal;font-stretch:normal;font-size:5.8831954px;font-family:'LEMON MILK';-inkscape-font-specification:'LEMON MILK, Normal';font-variant-ligatures:normal;font-variant-caps:normal;font-variant-numeric:normal;font-feature-settings:normal;text-align:center;writing-mode:lr-tb;text-anchor:middle;stroke-width:0.14708075"
           id="path852" />
        <path
           d="m 75.216989,174.02879 c 0.689437,0 1.197897,-0.30163 1.597196,-0.69518 l -0.419408,-0.58602 c -0.318865,0.31599 -0.726781,0.55155 -1.200769,0.55155 -0.830197,0 -1.643158,-0.72104 -1.643158,-1.65465 0,-0.92787 0.80147,-1.66327 1.640285,-1.66327 0.453879,0 0.87616,0.21545 1.200769,0.54006 l 0.422281,-0.57166 c -0.45388,-0.44239 -1.008302,-0.69805 -1.608687,-0.70667 -1.301312,0 -2.390048,1.09448 -2.390048,2.39867 0,1.30705 1.088736,2.38717 2.401539,2.38717 z"
           style="font-style:normal;font-variant:normal;font-weight:normal;font-stretch:normal;font-size:5.8831954px;font-family:'LEMON MILK';-inkscape-font-specification:'LEMON MILK, Normal';font-variant-ligatures:normal;font-variant-caps:normal;font-variant-numeric:normal;font-feature-settings:normal;text-align:center;writing-mode:lr-tb;text-anchor:middle;stroke-width:0.14708075"
           id="path854" />
        <path
           d="m 80.149335,170.03867 v -0.71529 h -2.757748 v 4.63072 h 2.757748 v -0.72391 h -2.030967 v -1.2812 h 1.752319 v -0.72391 h -1.752319 v -1.18641 z"
           style="font-style:normal;font-variant:normal;font-weight:normal;font-stretch:normal;font-size:5.8831954px;font-family:'LEMON MILK';-inkscape-font-specification:'LEMON MILK, Normal';font-variant-ligatures:normal;font-variant-caps:normal;font-variant-numeric:normal;font-feature-settings:normal;text-align:center;writing-mode:lr-tb;text-anchor:middle;stroke-width:0.14708075"
           id="path856" />
        <path
           d="m 81.634497,173.23019 v -3.90681 h -0.726782 v 4.63072 h 2.79222 v -0.72391 z"
           style="font-style:normal;font-variant:normal;font-weight:normal;font-stretch:normal;font-size:5.8831954px;font-family:'LEMON MILK';-inkscape-font-specification:'LEMON MILK, Normal';font-variant-ligatures:normal;font-variant-caps:normal;font-variant-numeric:normal;font-feature-settings:normal;text-align:center;writing-mode:lr-tb;text-anchor:middle;stroke-width:0.14708075"
           id="path858" />
        <path
           d="m 87.043706,170.03867 v -0.71529 h -2.757748 v 4.63072 h 2.757748 v -0.72391 h -2.030967 v -1.2812 h 1.752319 v -0.72391 h -1.752319 v -1.18641 z"
           style="font-style:normal;font-variant:normal;font-weight:normal;font-stretch:normal;font-size:5.8831954px;font-family:'LEMON MILK';-inkscape-font-specification:'LEMON MILK, Normal';font-variant-ligatures:normal;font-variant-caps:normal;font-variant-numeric:normal;font-feature-settings:normal;text-align:center;writing-mode:lr-tb;text-anchor:middle;stroke-width:0.14708075"
           id="path860" />
        <path
           d="m 91.240653,173.9541 -1.347274,-1.85286 c 0.531441,-0.17236 0.916376,-0.69231 0.916376,-1.28982 0,-0.82445 -0.706673,-1.48804 -1.568469,-1.48804 h -1.4392 l 0.0029,4.63072 h 0.726782 v -1.79253 h 0.568785 l 1.246732,1.79253 z m -2.711785,-2.39579 v -1.51389 h 0.729654 c 0.430898,0 0.80147,0.31886 0.80147,0.74976 0,0.41366 -0.364827,0.767 -0.80147,0.76413 z"
           style="font-style:normal;font-variant:normal;font-weight:normal;font-stretch:normal;font-size:5.8831954px;font-family:'LEMON MILK';-inkscape-font-specification:'LEMON MILK, Normal';font-variant-ligatures:normal;font-variant-caps:normal;font-variant-numeric:normal;font-feature-settings:normal;text-align:center;writing-mode:lr-tb;text-anchor:middle;stroke-width:0.14708075"
           id="path862" />
        <path
           d="m 94.963613,173.9541 h 0.787107 l -2.177472,-4.72551 h -0.04309 l -2.177471,4.72551 h 0.787107 l 0.315992,-0.7038 h 2.191835 z m -2.226307,-1.32716 0.815834,-1.80978 0.812961,1.80978 z"
           style="font-style:normal;font-variant:normal;font-weight:normal;font-stretch:normal;font-size:5.8831954px;font-family:'LEMON MILK';-inkscape-font-specification:'LEMON MILK, Normal';font-variant-ligatures:normal;font-variant-caps:normal;font-variant-numeric:normal;font-feature-settings:normal;text-align:center;writing-mode:lr-tb;text-anchor:middle;stroke-width:0.14708075"
           id="path864" />
        <path
           d="m 98.597521,169.32338 h -3.211627 v 0.72104 h 1.240987 v 3.90968 h 0.729654 v -3.90968 h 1.240986 z"
           style="font-style:normal;font-variant:normal;font-weight:normal;font-stretch:normal;font-size:5.8831954px;font-family:'LEMON MILK';-inkscape-font-specification:'LEMON MILK, Normal';font-variant-ligatures:normal;font-variant-caps:normal;font-variant-numeric:normal;font-feature-settings:normal;text-align:center;writing-mode:lr-tb;text-anchor:middle;stroke-width:0.14708075"
           id="path866" />
        <path
           d="m 101.11684,174.02879 c 1.31855,0 2.39867,-1.07437 2.39867,-2.3843 0,-1.32142 -1.08012,-2.40154 -2.3958,-2.40154 -1.318545,0 -2.392917,1.08012 -2.392917,2.40154 0,1.30993 1.074372,2.3843 2.390047,2.3843 z m 0,-0.7354 c -0.9135,0 -1.65752,-0.74402 -1.65752,-1.65465 0,-0.91637 0.74402,-1.66326 1.65752,-1.66326 0.9135,0 1.66327,0.74689 1.66327,1.66326 0,0.91063 -0.74977,1.65465 -1.66327,1.65465 z"
           style="font-style:normal;font-variant:normal;font-weight:normal;font-stretch:normal;font-size:5.8831954px;font-family:'LEMON MILK';-inkscape-font-specification:'LEMON MILK, Normal';font-variant-ligatures:normal;font-variant-caps:normal;font-variant-numeric:normal;font-feature-settings:normal;text-align:center;writing-mode:lr-tb;text-anchor:middle;stroke-width:0.14708075"
           id="path868" />
        <path
           d="m 107.62627,173.9541 -1.34728,-1.85286 c 0.53145,-0.17236 0.91638,-0.69231 0.91638,-1.28982 0,-0.82445 -0.70667,-1.48804 -1.56847,-1.48804 h -1.4392 l 0.003,4.63072 h 0.72678 v -1.79253 h 0.56878 l 1.24673,1.79253 z m -2.71179,-2.39579 v -1.51389 h 0.72966 c 0.4309,0 0.80147,0.31886 0.80147,0.74976 0,0.41366 -0.36483,0.767 -0.80147,0.76413 z"
           style="font-style:normal;font-variant:normal;font-weight:normal;font-stretch:normal;font-size:5.8831954px;font-family:'LEMON MILK';-inkscape-font-specification:'LEMON MILK, Normal';font-variant-ligatures:normal;font-variant-caps:normal;font-variant-numeric:normal;font-feature-settings:normal;text-align:center;writing-mode:lr-tb;text-anchor:middle;stroke-width:0.14708075"
           id="path870" />
        <path
           d="m 111.17688,174.03166 c 0.93935,0 1.65177,-0.52857 1.65177,-1.35014 0,-0.72966 -0.56878,-1.08299 -1.30131,-1.40473 -0.56304,-0.2413 -0.99107,-0.37057 -0.99107,-0.73253 0,-0.32748 0.33898,-0.59177 0.76413,-0.59177 0.3361,0 0.65497,0.17524 0.7986,0.48836 l 0.54006,-0.37345 c -0.1896,-0.50846 -0.68369,-0.82732 -1.34441,-0.82732 -0.83307,0 -1.4909,0.52856 -1.4909,1.28695 0,0.72678 0.60325,1.0083 1.14619,1.2496 0.54006,0.23268 1.14906,0.49122 1.14906,0.91925 0,0.35334 -0.39356,0.60326 -0.91351,0.60326 -0.44526,0 -0.83019,-0.20683 -1.03702,-0.56879 l -0.57454,0.41079 c 0.26429,0.53431 0.84169,0.89052 1.60295,0.89052 z"
           style="font-style:normal;font-variant:normal;font-weight:normal;font-stretch:normal;font-size:5.8831954px;font-family:'LEMON MILK';-inkscape-font-specification:'LEMON MILK, Normal';font-variant-ligatures:normal;font-variant-caps:normal;font-variant-numeric:normal;font-feature-settings:normal;text-align:center;writing-mode:lr-tb;text-anchor:middle;stroke-width:0.14708075"
           id="path872" />
        <path
           d="m 115.62948,174.02879 c 0.68944,0 1.1979,-0.30163 1.5972,-0.69518 l -0.41941,-0.58602 c -0.31886,0.31599 -0.72678,0.55155 -1.20077,0.55155 -0.83019,0 -1.64316,-0.72104 -1.64316,-1.65465 0,-0.92787 0.80147,-1.66327 1.64029,-1.66327 0.45388,0 0.87616,0.21545 1.20077,0.54006 l 0.42228,-0.57166 c -0.45388,-0.44239 -1.0083,-0.69805 -1.60869,-0.70667 -1.30131,0 -2.39005,1.09448 -2.39005,2.39867 0,1.30705 1.08874,2.38717 2.40154,2.38717 z"
           style="font-style:normal;font-variant:normal;font-weight:normal;font-stretch:normal;font-size:5.8831954px;font-family:'LEMON MILK';-inkscape-font-specification:'LEMON MILK, Normal';font-variant-ligatures:normal;font-variant-caps:normal;font-variant-numeric:normal;font-feature-settings:normal;text-align:center;writing-mode:lr-tb;text-anchor:middle;stroke-width:0.14708075"
           id="path874" />
        <path
           d="m 117.80408,173.9541 h 0.72678 v -4.63072 h -0.72678 z"
           style="font-style:normal;font-variant:normal;font-weight:normal;font-stretch:normal;font-size:5.8831954px;font-family:'LEMON MILK';-inkscape-font-specification:'LEMON MILK, Normal';font-variant-ligatures:normal;font-variant-caps:normal;font-variant-numeric:normal;font-feature-settings:normal;text-align:center;writing-mode:lr-tb;text-anchor:middle;stroke-width:0.14708075"
           id="path876" />
        <path
           d="m 122.18201,170.03867 v -0.71529 h -2.75775 v 4.63072 h 2.75775 v -0.72391 h -2.03097 v -1.2812 h 1.75232 v -0.72391 h -1.75232 v -1.18641 z"
           style="font-style:normal;font-variant:normal;font-weight:normal;font-stretch:normal;font-size:5.8831954px;font-family:'LEMON MILK';-inkscape-font-specification:'LEMON MILK, Normal';font-variant-ligatures:normal;font-variant-caps:normal;font-variant-numeric:normal;font-feature-settings:normal;text-align:center;writing-mode:lr-tb;text-anchor:middle;stroke-width:0.14708075"
           id="path878" />
        <path
           d="m 125.93369,169.31189 v 3.01916 l -2.95596,-3.0881 h -0.0373 v 4.7169 h 0.72678 v -3.01916 l 2.96171,3.09385 h 0.0345 v -4.72265 z"
           style="font-style:normal;font-variant:normal;font-weight:normal;font-stretch:normal;font-size:5.8831954px;font-family:'LEMON MILK';-inkscape-font-specification:'LEMON MILK, Normal';font-variant-ligatures:normal;font-variant-caps:normal;font-variant-numeric:normal;font-feature-settings:normal;text-align:center;writing-mode:lr-tb;text-anchor:middle;stroke-width:0.14708075"
           id="path880" />
        <path
           d="m 129.73996,174.02879 c 0.68944,0 1.1979,-0.30163 1.5972,-0.69518 l -0.41941,-0.58602 c -0.31886,0.31599 -0.72678,0.55155 -1.20077,0.55155 -0.83019,0 -1.64315,-0.72104 -1.64315,-1.65465 0,-0.92787 0.80147,-1.66327 1.64028,-1.66327 0.45388,0 0.87616,0.21545 1.20077,0.54006 l 0.42228,-0.57166 c -0.45388,-0.44239 -1.0083,-0.69805 -1.60869,-0.70667 -1.30131,0 -2.39004,1.09448 -2.39004,2.39867 0,1.30705 1.08873,2.38717 2.40153,2.38717 z"
           style="font-style:normal;font-variant:normal;font-weight:normal;font-stretch:normal;font-size:5.8831954px;font-family:'LEMON MILK';-inkscape-font-specification:'LEMON MILK, Normal';font-variant-ligatures:normal;font-variant-caps:normal;font-variant-numeric:normal;font-feature-settings:normal;text-align:center;writing-mode:lr-tb;text-anchor:middle;stroke-width:0.14708075"
           id="path882" />
        <path
           d="m 134.67231,170.03867 v -0.71529 h -2.75775 v 4.63072 h 2.75775 v -0.72391 h -2.03097 v -1.2812 h 1.75232 v -0.72391 h -1.75232 v -1.18641 z"
           style="font-style:normal;font-variant:normal;font-weight:normal;font-stretch:normal;font-size:5.8831954px;font-family:'LEMON MILK';-inkscape-font-specification:'LEMON MILK, Normal';font-variant-ligatures:normal;font-variant-caps:normal;font-variant-numeric:normal;font-feature-settings:normal;text-align:center;writing-mode:lr-tb;text-anchor:middle;stroke-width:0.14708075"
           id="path884" />
        <path
           d="m 140.38601,173.9541 h 0.78711 l -2.17747,-4.72551 h -0.0431 l -2.17747,4.72551 h 0.78711 l 0.31599,-0.7038 h 2.19183 z m -2.2263,-1.32716 0.81583,-1.80978 0.81296,1.80978 z"
           style="font-style:normal;font-variant:normal;font-weight:normal;font-stretch:normal;font-size:5.8831954px;font-family:'LEMON MILK';-inkscape-font-specification:'LEMON MILK, Normal';font-variant-ligatures:normal;font-variant-caps:normal;font-variant-numeric:normal;font-feature-settings:normal;text-align:center;writing-mode:lr-tb;text-anchor:middle;stroke-width:0.14708075"
           id="path886" />
        <path
           d="m 144.68638,169.31189 v 3.01916 l -2.95596,-3.0881 h -0.0374 v 4.7169 h 0.72679 v -3.01916 l 2.9617,3.09385 h 0.0345 v -4.72265 z"
           style="font-style:normal;font-variant:normal;font-weight:normal;font-stretch:normal;font-size:5.8831954px;font-family:'LEMON MILK';-inkscape-font-specification:'LEMON MILK, Normal';font-variant-ligatures:normal;font-variant-caps:normal;font-variant-numeric:normal;font-feature-settings:normal;text-align:center;writing-mode:lr-tb;text-anchor:middle;stroke-width:0.14708075"
           id="path888" />
        <path
           d="m 147.63085,169.32338 h -1.31854 v 4.63072 h 1.31854 c 1.4708,0 2.38718,-0.88765 2.38718,-2.30961 0,-1.43346 -0.91638,-2.32398 -2.38718,-2.32111 z m 0.006,3.90681 h -0.60039 v -3.18577 h 0.59177 c 1.01692,0 1.65465,0.61475 1.65465,1.5972 0,0.9767 -0.63486,1.58857 -1.64603,1.58857 z"
           style="font-style:normal;font-variant:normal;font-weight:normal;font-stretch:normal;font-size:5.8831954px;font-family:'LEMON MILK';-inkscape-font-specification:'LEMON MILK, Normal';font-variant-ligatures:normal;font-variant-caps:normal;font-variant-numeric:normal;font-feature-settings:normal;text-align:center;writing-mode:lr-tb;text-anchor:middle;stroke-width:0.14708075"
           id="path890" />
        <path
           d="m 155.17157,170.03867 v -0.71529 h -2.75775 v 4.63072 h 2.75775 v -0.72391 h -2.03097 v -1.2812 h 1.75232 v -0.72391 h -1.75232 v -1.18641 z"
           style="font-style:normal;font-variant:normal;font-weight:normal;font-stretch:normal;font-size:5.8831954px;font-family:'LEMON MILK';-inkscape-font-specification:'LEMON MILK, Normal';font-variant-ligatures:normal;font-variant-caps:normal;font-variant-numeric:normal;font-feature-settings:normal;text-align:center;writing-mode:lr-tb;text-anchor:middle;stroke-width:0.14708075"
           id="path892" />
        <path
           d="m 157.24849,169.32338 h -1.31855 v 4.63072 h 1.31855 c 1.4708,0 2.38718,-0.88765 2.38718,-2.30961 0,-1.43346 -0.91638,-2.32398 -2.38718,-2.32111 z m 0.006,3.90681 h -0.60039 v -3.18577 h 0.59177 c 1.01692,0 1.65465,0.61475 1.65465,1.5972 0,0.9767 -0.63486,1.58857 -1.64603,1.58857 z"
           style="font-style:normal;font-variant:normal;font-weight:normal;font-stretch:normal;font-size:5.8831954px;font-family:'LEMON MILK';-inkscape-font-specification:'LEMON MILK, Normal';font-variant-ligatures:normal;font-variant-caps:normal;font-variant-numeric:normal;font-feature-settings:normal;text-align:center;writing-mode:lr-tb;text-anchor:middle;stroke-width:0.14708075"
           id="path894" />
        <path
           d="m 162.01423,174.04028 c 0.98532,0 1.75232,-0.77849 1.75232,-1.84137 v -2.87553 h -0.73253 v 2.87266 c 0,0.6406 -0.45675,1.10884 -1.02266,1.10884 -0.56592,0 -1.01692,-0.46824 -1.01692,-1.10884 v -2.87266 h -0.72966 v 2.87553 c 0,1.06288 0.76413,1.84137 1.74945,1.84137 z"
           style="font-style:normal;font-variant:normal;font-weight:normal;font-stretch:normal;font-size:5.8831954px;font-family:'LEMON MILK';-inkscape-font-specification:'LEMON MILK, Normal';font-variant-ligatures:normal;font-variant-caps:normal;font-variant-numeric:normal;font-feature-settings:normal;text-align:center;writing-mode:lr-tb;text-anchor:middle;stroke-width:0.14708075"
           id="path896" />
        <path
           d="m 166.79719,174.02879 c 0.68944,0 1.1979,-0.30163 1.5972,-0.69518 l -0.41941,-0.58602 c -0.31886,0.31599 -0.72678,0.55155 -1.20077,0.55155 -0.8302,0 -1.64316,-0.72104 -1.64316,-1.65465 0,-0.92787 0.80147,-1.66327 1.64029,-1.66327 0.45388,0 0.87616,0.21545 1.20077,0.54006 l 0.42228,-0.57166 c -0.45388,-0.44239 -1.0083,-0.69805 -1.60869,-0.70667 -1.30131,0 -2.39005,1.09448 -2.39005,2.39867 0,1.30705 1.08874,2.38717 2.40154,2.38717 z"
           style="font-style:normal;font-variant:normal;font-weight:normal;font-stretch:normal;font-size:5.8831954px;font-family:'LEMON MILK';-inkscape-font-specification:'LEMON MILK, Normal';font-variant-ligatures:normal;font-variant-caps:normal;font-variant-numeric:normal;font-feature-settings:normal;text-align:center;writing-mode:lr-tb;text-anchor:middle;stroke-width:0.14708075"
           id="path898" />
        <path
           d="m 172.20353,173.9541 h 0.78711 l -2.17747,-4.72551 h -0.0431 l -2.17747,4.72551 h 0.78711 l 0.31599,-0.7038 h 2.19183 z m -2.2263,-1.32716 0.81583,-1.80978 0.81296,1.80978 z"
           style="font-style:normal;font-variant:normal;font-weight:normal;font-stretch:normal;font-size:5.8831954px;font-family:'LEMON MILK';-inkscape-font-specification:'LEMON MILK, Normal';font-variant-ligatures:normal;font-variant-caps:normal;font-variant-numeric:normal;font-feature-settings:normal;text-align:center;writing-mode:lr-tb;text-anchor:middle;stroke-width:0.14708075"
           id="path900" />
        <path
           d="m 175.83744,169.32338 h -3.21162 v 0.72104 h 1.24098 v 3.90968 h 0.72966 v -3.90968 h 1.24098 z"
           style="font-style:normal;font-variant:normal;font-weight:normal;font-stretch:normal;font-size:5.8831954px;font-family:'LEMON MILK';-inkscape-font-specification:'LEMON MILK, Normal';font-variant-ligatures:normal;font-variant-caps:normal;font-variant-numeric:normal;font-feature-settings:normal;text-align:center;writing-mode:lr-tb;text-anchor:middle;stroke-width:0.14708075"
           id="path902" />
        <path
           d="m 176.41772,173.9541 h 0.72678 v -4.63072 h -0.72678 z"
           style="font-style:normal;font-variant:normal;font-weight:normal;font-stretch:normal;font-size:5.8831954px;font-family:'LEMON MILK';-inkscape-font-specification:'LEMON MILK, Normal';font-variant-ligatures:normal;font-variant-caps:normal;font-variant-numeric:normal;font-feature-settings:normal;text-align:center;writing-mode:lr-tb;text-anchor:middle;stroke-width:0.14708075"
           id="path904" />
        <path
           d="m 180.20675,174.02879 c 1.31855,0 2.39867,-1.07437 2.39867,-2.3843 0,-1.32142 -1.08012,-2.40154 -2.39579,-2.40154 -1.31855,0 -2.39292,1.08012 -2.39292,2.40154 0,1.30993 1.07437,2.3843 2.39004,2.3843 z m 0,-0.7354 c -0.9135,0 -1.65752,-0.74402 -1.65752,-1.65465 0,-0.91637 0.74402,-1.66326 1.65752,-1.66326 0.91351,0 1.66327,0.74689 1.66327,1.66326 0,0.91063 -0.74976,1.65465 -1.66327,1.65465 z"
           style="font-style:normal;font-variant:normal;font-weight:normal;font-stretch:normal;font-size:5.8831954px;font-family:'LEMON MILK';-inkscape-font-specification:'LEMON MILK, Normal';font-variant-ligatures:normal;font-variant-caps:normal;font-variant-numeric:normal;font-feature-settings:normal;text-align:center;writing-mode:lr-tb;text-anchor:middle;stroke-width:0.14708075"
           id="path906" />
        <path
           d="m 186.27092,169.31189 v 3.01916 l -2.95596,-3.0881 h -0.0373 v 4.7169 h 0.72678 v -3.01916 l 2.9617,3.09385 h 0.0345 v -4.72265 z"
           style="font-style:normal;font-variant:normal;font-weight:normal;font-stretch:normal;font-size:5.8831954px;font-family:'LEMON MILK';-inkscape-font-specification:'LEMON MILK, Normal';font-variant-ligatures:normal;font-variant-caps:normal;font-variant-numeric:normal;font-feature-settings:normal;text-align:center;writing-mode:lr-tb;text-anchor:middle;stroke-width:0.14708075"
           id="path909" />
      </g>
      <g
         transform="matrix(0.80339028,0,0,0.80339028,152.95568,-50.215451)"
         id="g915">
        <g
           transform="translate(-1.5875,0.52916667)"
           id="g920">
          <path
             sodipodi:nodetypes="ccccccc"
             inkscape:connector-curvature="0"
             id="path905"
             d="m -156.87652,256.61242 c 92.114207,-62.42116 137.662088,-70.68607 118.20142,-36.97921 l -27.258285,44.13942 h 10.339938 l 14.909167,-25.51627 6.064745,-10.85774 c 46.336747,-82.68892 -102.283985,12.18426 -122.256985,29.2138 z"
             style="fill:#8f2932;fill-opacity:1;stroke:none;stroke-width:0.26458332px;stroke-linecap:butt;stroke-linejoin:miter;stroke-opacity:1" />
          <path
             sodipodi:nodetypes="ccccc"
             inkscape:connector-curvature="0"
             id="path908"
             d="m -35.100135,263.77263 h 9.030951 l -6.98442,-35.86091 -5.899844,10.56541 z"
             style="fill:#366047;fill-opacity:1;stroke:none;stroke-width:0.26458332px;stroke-linecap:butt;stroke-linejoin:miter;stroke-opacity:1" />
          <path
             sodipodi:nodetypes="cccc"
             inkscape:connector-curvature="0"
             id="path910"
             d="m -45.882754,250.38652 -4.361846,7.37439 h 12.587925 l -1.112495,-7.37439"
             style="fill:#2b4c81;fill-opacity:1;stroke:none;stroke-width:0.26458332px;stroke-linecap:butt;stroke-linejoin:miter;stroke-opacity:1" />
        </g>
      </g>
    </g>
  </g>
</svg>
