<?xml version="1.0" encoding="UTF-8" standalone="no"?>
<!-- Created with Inkscape (http://www.inkscape.org/) -->

<svg
   xmlns:dc="http://purl.org/dc/elements/1.1/"
   xmlns:cc="http://creativecommons.org/ns#"
   xmlns:rdf="http://www.w3.org/1999/02/22-rdf-syntax-ns#"
   xmlns:svg="http://www.w3.org/2000/svg"
   xmlns="http://www.w3.org/2000/svg"
   xmlns:sodipodi="http://sodipodi.sourceforge.net/DTD/sodipodi-0.dtd"
   xmlns:inkscape="http://www.inkscape.org/namespaces/inkscape"
   width="800"
   height="350"
   viewBox="0 0 211.66666 92.604169"
   version="1.1"
   id="svg8"
   inkscape:version="0.92.4 (5da689c313, 2019-01-14)"
   sodipodi:docname="logo.svg">
  <defs
     id="defs2">
    <filter
       inkscape:collect="always"
       style="color-interpolation-filters:sRGB"
       id="filter843"
       x="-0.50045168"
       width="2.0009034"
       y="-0.97408116"
       height="2.9481623">
      <feGaussianBlur
         inkscape:collect="always"
         stdDeviation="103.00068"
         id="feGaussianBlur845" />
    </filter>
  </defs>
  <sodipodi:namedview
     id="base"
     pagecolor="#ffffff"
     bordercolor="#666666"
     borderopacity="1.0"
     inkscape:pageopacity="0.0"
     inkscape:pageshadow="2"
     inkscape:zoom="1.4"
     inkscape:cx="513.48311"
     inkscape:cy="-2.8579671"
     inkscape:document-units="mm"
     inkscape:current-layer="layer1"
     showgrid="false"
     inkscape:window-width="3840"
     inkscape:window-height="2100"
     inkscape:window-x="3840"
     inkscape:window-y="0"
     inkscape:window-maximized="1"
     units="px"
     inkscape:pagecheckerboard="true"
     inkscape:showpageshadow="false"
     showborder="false" />
  <metadata
     id="metadata5">
    <rdf:RDF>
      <cc:Work
         rdf:about="">
        <dc:format>image/svg+xml</dc:format>
        <dc:type
           rdf:resource="http://purl.org/dc/dcmitype/StillImage" />
        <dc:title></dc:title>
      </cc:Work>
    </rdf:RDF>
  </metadata>
  <g
     inkscape:label="Layer 1"
     inkscape:groupmode="layer"
     id="layer1"
     transform="translate(0,-204.39582)">
    <g
       id="g1009"
       transform="matrix(1.2622236,0,0,1.2702447,-31.066239,195.16919)">
      <path
         id="path910-7-1-3"
         d="m 149.85936,12.224453 c -8.32945,0.008 -13.9813,8.633571 -21.42711,8.63048 -2.21639,-7.93e-4 -4.27337,-0.767029 -6.29006,-1.839679 v 32.64555 c 2.01049,-1.06822 4.06185,-1.829744 6.27145,-1.828829 7.4517,0.003 13.10973,8.627195 21.44572,8.629965 15.207,-4e-5 27.53481,-10.350823 27.53476,-23.119003 5e-5,-12.768159 -12.32776,-23.118434 -27.53476,-23.118484 z"
         style="fill:#9fd3ff;fill-opacity:1;stroke:none;stroke-width:0.9032377;stroke-miterlimit:4;stroke-dasharray:0.90323768, 0.90323768;stroke-dashoffset:0;stroke-opacity:0.27777782"
         inkscape:connector-curvature="0" />
      <path
         sodipodi:nodetypes="cccscccsc"
         inkscape:connector-curvature="0"
         id="path910-7-1"
         d="m 52.299677,12.491503 c -15.06178,5e-5 -27.271723,10.350742 -27.271669,23.118902 -5.4e-5,12.76818 12.209889,23.11886 27.271669,23.1189 8.249803,-0.007 13.847645,-8.63337 21.222294,-8.63028 7.380527,0.003 12.984684,8.62751 21.241065,8.63028 15.061754,-4e-5 27.271714,-10.35072 27.271654,-23.1189 6e-5,-12.76816 -12.2099,-23.118852 -27.271654,-23.118902 -8.249903,0.008 -13.847595,8.633902 -21.222291,8.630812 -7.380581,-0.003 -12.98458,-8.627922 -21.241068,-8.630812 z"
         style="fill:#9fd3ff;fill-opacity:1;stroke:none;stroke-width:0.89891392;stroke-miterlimit:4;stroke-dasharray:0.89891393, 0.89891393;stroke-dashoffset:0;stroke-opacity:0.27777782" />
      <path
         d="m 48.063547,10.607345 q 6.253663,0 11.219808,3.126832 4.966144,3.126832 7.817079,8.644768 2.9429,5.51794 2.9429,12.69126 0,7.08135 -2.9429,12.69126 -2.850935,5.51794 -7.817079,8.73673 -4.874179,3.12683 -11.035877,3.12683 -3.402728,0 -6.437594,-1.01162 -2.942901,-1.10358 -5.425973,-2.75897 -2.391106,-1.74734 -4.046488,-3.86255 -1.655381,-2.11521 -2.391106,-4.32239 l 2.023244,-1.19555 v 27.0379 q 0,1.56341 -1.011622,2.667 -1.011622,1.10359 -2.667004,1.10359 -1.563416,0 -2.667003,-1.10359 -1.011622,-1.01162 -1.011622,-2.667 v -58.67408 q 0,-1.655382 1.011622,-2.667004 1.103587,-1.103587 2.667003,-1.103587 1.655382,0 2.667004,1.103587 1.011622,1.011622 1.011622,2.667004 v 8.09298 l -1.379485,-0.73573 q 0.643759,-2.29914 2.207175,-4.41435 1.655382,-2.11521 3.954523,-3.678625 2.391106,-1.655382 5.242041,-2.575038 2.9429,-0.919657 6.069732,-0.919657 z m -0.827691,6.805457 q -4.598282,0 -8.184941,2.299141 -3.494695,2.299142 -5.517939,6.253662 -1.931278,3.95452 -1.931278,9.1046 0,5.05811 1.931278,9.1046 2.023244,4.04649 5.517939,6.34563 3.586659,2.29914 8.184941,2.29914 4.598282,0 8.092976,-2.29914 3.494695,-2.29914 5.517939,-6.34563 2.023244,-4.04649 2.023244,-9.1046 0,-5.15008 -2.023244,-9.1046 -2.023244,-3.95452 -5.517939,-6.253662 -3.494694,-2.299141 -8.092976,-2.299141 z"
         style="font-style:normal;font-variant:normal;font-weight:500;font-stretch:normal;font-size:91.96563721px;line-height:1.25;font-family:Quicksand;-inkscape-font-specification:'Quicksand, Medium';font-variant-ligatures:normal;font-variant-caps:normal;font-variant-numeric:normal;font-feature-settings:normal;text-align:center;letter-spacing:0px;word-spacing:0px;writing-mode:lr-tb;text-anchor:middle;fill:#000080;fill-opacity:1;stroke:none;stroke-width:2.2991457"
         id="path823"
         inkscape:connector-curvature="0" />
      <path
         sodipodi:nodetypes="scsscssscccccsczcssccccscssccsccscssccs"
         d="m 119.3714,10.883242 c 1.10359,0 1.99259,0.367863 2.66701,1.103588 0.67441,0.674415 1.01162,1.532761 1.01162,2.575038 v 40.556847 c 0,1.04227 -0.36786,1.93127 -1.10359,2.667 -0.67441,0.73573 -1.53276,1.10359 -2.57504,1.10359 -1.10358,0 -1.99258,-0.36786 -2.667,-1.10359 -0.67441,-0.73573 -1.01162,-1.62473 -1.01162,-2.667 v -8.73674 l 1.74735,-0.18393 c 0,1.41014 -0.45983,2.91225 -1.37949,4.50632 -0.91966,1.53276 -2.17652,3.00421 -3.77059,4.41435 -1.59407,1.34883 -3.49469,2.48307 -5.70187,3.40273 -2.14586,0.85835 -4.445,1.28752 -6.897422,1.28752 -4.230419,0 -8.001011,-1.07293 -11.311774,-3.2188 -7.228698,-5.59151 -15.314431,-18.701651 -15.298189,-21.70389 0.01624,-3.002239 8.335662,-17.193068 15.298189,-21.519961 3.310763,-2.145865 6.989389,-3.218797 11.035877,-3.218797 2.636349,0 5.088769,0.429173 7.357249,1.287519 2.26849,0.858346 4.23042,2.023244 5.8858,3.494694 1.71669,1.471451 3.03487,3.096177 3.95453,4.874179 0.98096,1.778006 1.47145,3.556006 1.47145,5.334006 l -2.39111,-0.55179 V 14.561868 c 0,-1.042277 0.3372,-1.900623 1.01162,-2.575038 0.67442,-0.735725 1.56342,-1.103588 2.667,-1.103588 z m -18.94492,42.120263 c 3.06552,0 5.76318,-0.79704 8.09298,-2.39111 2.39111,-1.59407 4.23042,-3.73993 5.51794,-6.43759 1.34883,-2.75897 2.02324,-5.85515 2.02324,-9.28853 0,-3.37207 -0.67441,-6.40694 -2.02324,-9.1046 -1.28752,-2.69766 -3.12683,-4.84352 -5.51794,-6.437594 -2.3298,-1.594071 -5.02746,-2.391107 -8.09298,-2.391107 -3.004208,0 -5.701867,0.797036 -8.092973,2.391107 -2.329797,1.532764 -4.16911,3.647974 -5.517939,6.345624 -1.348829,2.69766 -2.023244,5.76318 -2.023244,9.19657 0,3.43338 0.674415,6.52956 2.023244,9.28853 1.348829,2.69766 3.188142,4.84352 5.517939,6.43759 2.391106,1.59407 5.088765,2.39111 8.092973,2.39111 z"
         style="font-style:normal;font-variant:normal;font-weight:500;font-stretch:normal;font-size:91.96563721px;line-height:1.25;font-family:Quicksand;-inkscape-font-specification:'Quicksand, Medium';font-variant-ligatures:normal;font-variant-caps:normal;font-variant-numeric:normal;font-feature-settings:normal;text-align:center;letter-spacing:0px;word-spacing:0px;writing-mode:lr-tb;text-anchor:middle;fill:#000080;fill-opacity:1;stroke:none;stroke-width:2.2991457"
         id="path825"
         inkscape:connector-curvature="0" />
      <path
         sodipodi:nodetypes="scccccscscssccsccccscccscscccccsczcssccsccsccsccs"
         d="m 155.66298,10.147517 c 2.63635,0 5.08876,0.459828 7.35725,1.379485 2.26849,0.858346 4.23042,1.992589 5.8858,3.402728 1.71669,1.41014 3.03487,2.88159 3.95452,4.414351 0.98097,1.532764 1.47145,2.973554 1.47145,4.322384 l -1.74734,-1.10359 v -8.001007 c 0,-1.042277 0.33721,-1.900623 1.01162,-2.575038 0.67441,-0.735725 1.56341,-1.103588 2.667,-1.103588 1.10359,0 1.99259,0.367863 2.66701,1.103588 0.67441,0.674415 1.01162,1.532761 1.01162,2.575038 v 40.280947 c 0,5.02745 -1.07293,9.19656 -3.2188,12.50733 -2.08455,3.37207 -4.90483,5.85515 -8.46084,7.44922 -3.55601,1.65538 -7.51053,2.48307 -11.86357,2.48307 -1.83931,0 -3.89321,-0.24524 -6.16169,-0.73573 -2.20718,-0.42917 -4.16911,-1.01162 -5.8858,-1.74734 -1.87868,-0.8912 -4.28133,-2.28154 -4.96615,-4.23042 -0.24524,-0.73573 -0.12262,-1.47145 0.36786,-2.20718 0.5518,-0.85835 1.25687,-1.28752 2.11521,-1.28752 0.91966,0 2.0539,0.2759 3.40273,0.82769 0.5518,0.18393 1.41014,0.49049 2.57504,0.91966 1.22621,0.42917 2.60569,0.79704 4.13845,1.10359 1.53276,0.36786 3.03487,0.55179 4.50632,0.55179 5.15007,0 9.1046,-1.37948 11.86357,-4.13845 2.82028,-2.69766 4.23042,-6.28432 4.23042,-10.75998 v -8.55281 l 1.01162,0.45983 c -0.36787,1.71669 -1.13425,3.31076 -2.29914,4.78221 -1.10359,1.47145 -2.45242,2.78963 -4.04649,3.95453 -1.59407,1.10359 -3.40273,1.99259 -5.42597,2.667 -1.96194,0.61311 -3.95453,0.91966 -5.97777,0.91966 -4.29173,0 -8.15429,-1.07293 -11.58767,-3.2188 -7.93833,-5.87381 -17.2282,-18.376813 -17.2643,-21.74556 -0.0361,-3.368747 10.43216,-17.215956 17.17233,-21.478291 3.43339,-2.145865 7.26529,-3.218797 11.49571,-3.218797 z m 1.01162,6.805457 c -3.18814,0 -6.00842,0.797036 -8.46084,2.391107 -2.45241,1.532764 -4.38369,3.678624 -5.79383,6.437594 -1.41014,2.69766 -2.11521,5.76318 -2.11521,9.19656 0,3.37207 0.70507,6.4376 2.11521,9.19657 1.41014,2.69766 3.34142,4.84352 5.79383,6.43759 2.45242,1.59407 5.2727,2.39111 8.46084,2.39111 3.12683,0 5.91646,-0.76638 8.36887,-2.29914 2.45242,-1.59407 4.3837,-3.73994 5.79384,-6.4376 1.41014,-2.69765 2.11521,-5.79383 2.11521,-9.28853 0,-3.49469 -0.70507,-6.59087 -2.11521,-9.28853 -1.41014,-2.75897 -3.34142,-4.90483 -5.79384,-6.43759 -2.45241,-1.532761 -5.24204,-2.299141 -8.36887,-2.299141 z"
         style="font-style:normal;font-variant:normal;font-weight:500;font-stretch:normal;font-size:91.96563721px;line-height:1.25;font-family:Quicksand;-inkscape-font-specification:'Quicksand, Medium';font-variant-ligatures:normal;font-variant-caps:normal;font-variant-numeric:normal;font-feature-settings:normal;text-align:center;letter-spacing:0px;word-spacing:0px;writing-mode:lr-tb;text-anchor:middle;fill:#000080;fill-opacity:1;stroke:none;stroke-width:2.2991457"
         id="path827"
         inkscape:connector-curvature="0" />
      <path
         sodipodi:nodetypes="sscss"
         inkscape:connector-curvature="0"
         id="path837"
         d="m 192.30579,34.875415 c 0,5.71984 -7.77795,10.35669 -17.37252,10.35669 -9.59458,0 -27.52876,-4.50321 -27.52876,-10.22306 -10e-6,-5.71984 17.93418,-10.49033 27.52876,-10.49033 9.59458,0 17.37253,4.63685 17.37252,10.3567 z"
         style="fill:#aa0000;stroke:none;stroke-width:0.76499999;stroke-miterlimit:4;stroke-dasharray:0.76499999, 0.76499999;stroke-dashoffset:0;stroke-opacity:0.27777782" />
    </g>
    <g
       id="g1114"
       transform="translate(1.5119048,9.827381)">
      <path
         id="path827-8"
         transform="scale(0.26458333)"
         d="m 582.46875,741.59766 c -15.98899,0 -30.47067,4.05567 -43.44727,12.16601 -25.47465,16.10963 -65.04073,68.44549 -64.90429,81.17774 0.13644,12.73228 35.24881,59.98727 65.25195,82.1875 12.97655,8.11037 27.57421,12.16601 43.79492,12.16601 7.64689,0 15.17855,-1.15929 22.59375,-3.47656 7.64689,-2.54895 14.48298,-5.90903 20.50781,-10.08008 6.02484,-4.40277 11.12192,-9.38588 15.29297,-14.94726 1.91227,-2.41551 3.5232,-4.92331 4.86719,-7.51368 v 20.02735 c 0,16.91588 -5.32895,30.47209 -15.98828,40.66797 -10.4276,10.42764 -25.37501,15.64062 -44.83984,15.64062 H 202 v 0.0137 h -7.45117 c -4.17838,0 -7.54428,1.17697 -10.09766,3.53321 -2.78555,2.57053 -4.17578,5.67678 -4.17578,9.31836 0,3.85576 1.39023,6.96205 4.17578,9.31836 2.78555,2.35634 6.15142,3.53515 10.09766,3.53515 H 202 v 0.0449 h 385.59766 v -0.0703 c 15.52851,-0.28488 29.69485,-3.3981 42.49218,-9.35547 13.44004,-6.02479 24.09795,-15.40946 31.97657,-28.15429 8.11037,-12.51311 12.16601,-28.27206 12.16601,-47.27344 V 758.28125 c 0,-3.93933 -1.27527,-7.18343 -3.82422,-9.73242 -2.54899,-2.78071 -5.90903,-4.17188 -10.08008,-4.17188 -4.17104,0 -7.53112,1.39117 -10.08007,4.17188 -2.54895,2.54899 -3.82227,5.79309 -3.82227,9.73242 v 16.43359 c -3.4048,-5.2039 -8.03137,-10.21877 -13.9043,-15.04296 -6.25655,-5.32967 -13.67032,-9.61718 -22.24414,-12.86133 -8.57382,-3.47585 -17.84443,-5.21289 -27.80859,-5.21289 z m 3.82422,25.7207 c 11.81794,0 22.36191,2.89631 31.63086,8.68945 9.26899,5.79307 16.56877,13.90439 21.89844,24.33203 5.32966,10.19588 7.99414,21.8972 7.99414,35.10547 0,13.20832 -2.66448,24.91162 -7.99414,35.10742 -5.32967,10.19592 -12.62945,18.30529 -21.89844,24.33008 -9.26895,5.79315 -19.81292,8.68946 -31.63086,8.68946 -12.04966,0 -22.70953,-3.01228 -31.97852,-9.03711 -9.26895,-6.02484 -16.56682,-14.1342 -21.89648,-24.33008 -5.32966,-10.42764 -7.99609,-22.01494 -7.99609,-34.75977 0,-12.97655 2.66643,-24.56197 7.99609,-34.75781 5.32966,-10.42764 12.62753,-18.53888 21.89648,-24.33203 9.26899,-6.02483 19.92886,-9.03711 31.97852,-9.03711 z"
         style="font-style:normal;font-variant:normal;font-weight:500;font-stretch:normal;font-size:91.96563721px;line-height:1.25;font-family:Quicksand;-inkscape-font-specification:'Quicksand, Medium';font-variant-ligatures:normal;font-variant-caps:normal;font-variant-numeric:normal;font-feature-settings:normal;text-align:center;letter-spacing:0px;word-spacing:0px;writing-mode:lr-tb;text-anchor:middle;fill:#000080;fill-opacity:1;stroke:none;stroke-width:8.68968487;filter:url(#filter843)"
         inkscape:connector-curvature="0" />
    </g>
  </g>
</svg>
