<?xml version="1.0" encoding="UTF-8" standalone="no"?>
<!-- Created with Inkscape (http://www.inkscape.org/) -->

<svg
   xmlns:dc="http://purl.org/dc/elements/1.1/"
   xmlns:cc="http://creativecommons.org/ns#"
   xmlns:rdf="http://www.w3.org/1999/02/22-rdf-syntax-ns#"
   xmlns:svg="http://www.w3.org/2000/svg"
   xmlns="http://www.w3.org/2000/svg"
   xmlns:sodipodi="http://sodipodi.sourceforge.net/DTD/sodipodi-0.dtd"
   xmlns:inkscape="http://www.inkscape.org/namespaces/inkscape"
   version="1.1"
   id="svg2"
   xml:space="preserve"
   width="232.72"
   height="81.853333"
   viewBox="0 0 232.72 81.853333"
   sodipodi:docname="sbu_logo.svg"
   inkscape:version="0.92.4 (5da689c313, 2019-01-14)"><metadata
     id="metadata8"><rdf:RDF><cc:Work
         rdf:about=""><dc:format>image/svg+xml</dc:format><dc:type
           rdf:resource="http://purl.org/dc/dcmitype/StillImage" /><dc:title></dc:title></cc:Work></rdf:RDF></metadata><defs
     id="defs6" /><sodipodi:namedview
     pagecolor="#ffffff"
     bordercolor="#666666"
     borderopacity="1"
     objecttolerance="10"
     gridtolerance="10"
     guidetolerance="10"
     inkscape:pageopacity="0"
     inkscape:pageshadow="2"
     inkscape:window-width="2393"
     inkscape:window-height="1508"
     id="namedview4"
     showgrid="false"
     inkscape:zoom="5.955351"
     inkscape:cx="114.56354"
     inkscape:cy="15.928973"
     inkscape:window-x="4536"
     inkscape:window-y="344"
     inkscape:window-maximized="0"
     inkscape:current-layer="g10" /><g
     id="g10"
     inkscape:groupmode="layer"
     inkscape:label="ink_ext_XXXXXX"
     transform="matrix(1.3333333,0,0,-1.3333333,0,81.853333)"><path
       inkscape:connector-curvature="0"
       id="path14"
       style="fill:#ffffff;fill-opacity:1;fill-rule:nonzero;stroke:none;stroke-width:0.1"
       d="m 40.5063,56.3766 c -11.2911,6.8929 -29.0829,6.48 -40.50395625,0 V 38.3035 C -0.134375,28.5695 6.1332,19.5051 14.6117,15.3164 c 1.8672,-0.9187 3.5949,-1.5566 5.6446,-2.0371 2.048,0.4805 3.7753,1.1184 5.6417,2.0371 8.4754,4.1856 14.7461,13.2531 14.6063,22.9871 l 0.002,18.0731" /><path
       inkscape:connector-curvature="0"
       id="path16"
       style="fill:#990000;fill-opacity:1;fill-rule:nonzero;stroke:none;stroke-width:0.1"
       d="m 33.9516,21.5051 -8.5254,39.6375 c -0.3574,0.0363 -0.7176,0.0578 -1.0762,0.0855 l 7.1621,-42.1402 c 0.8633,0.7512 1.6777,1.5598 2.4395,2.4172" /><path
       inkscape:connector-curvature="0"
       id="path18"
       style="fill:#990000;fill-opacity:1;fill-rule:nonzero;stroke:none;stroke-width:0.1"
       d="m 40.4652,36.8594 -9.8418,23.4215 c -0.3769,0.0867 -0.7578,0.1597 -1.1386,0.2347 L 39.9164,32.8621 c 0.3,1.307 0.4805,2.6438 0.5488,3.9973" /><path
       inkscape:connector-curvature="0"
       id="path20"
       style="fill:#990000;fill-opacity:1;fill-rule:nonzero;stroke:none;stroke-width:0.1"
       d="m 25.898,15.3184 c 0.6434,0.3183 1.2696,0.6738 1.8868,1.0461 L 22.898,61.3379 c -0.3847,0.018 -0.7707,0.0156 -1.1582,0.0254 l 2.9637,-46.5977 c 0.3957,0.175 0.7903,0.3535 1.1945,0.5528" /><path
       inkscape:connector-curvature="0"
       id="path22"
       style="fill:#990000;fill-opacity:1;fill-rule:nonzero;stroke:none;stroke-width:0.1"
       d="M 38.3512,28.2609 27.9801,60.7992 c -0.3625,0.0594 -0.7278,0.1051 -1.091,0.1555 l 9.8293,-35.7496 c 0.6113,0.9812 1.1582,2.0019 1.6328,3.0558" /><path
       inkscape:connector-curvature="0"
       id="path24"
       style="fill:#990000;fill-opacity:1;fill-rule:nonzero;stroke:none;stroke-width:0.1"
       d="m 40.5074,56.3789 c -2.4914,1.5195 -5.3078,2.6641 -8.291,3.4863 l 8.2879,-17.3621 0.0031,13.8758" /><path
       inkscape:connector-curvature="0"
       id="path26"
       style="fill:#990000;fill-opacity:1;fill-rule:nonzero;stroke:none;stroke-width:0.1"
       d="m 12.5199,39.8613 1.1321,-3.4754 -2.9563,2.1485 -2.95,-2.1485 1.12969,3.4754 -2.93945,2.1407 h 3.63398 l 1.12578,3.4546 1.1328,-3.4546 h 3.6289 z M 0.00234375,56.3789 V 38.3059 C -0.136328,28.5715 6.13242,19.5051 14.6109,15.3184 c 1.8661,-0.92 3.5957,-1.5567 5.6434,-2.0371 V 61.3926 C 12.984,61.3336 5.69961,59.6125 0.00234375,56.3789" /><path
       inkscape:connector-curvature="0"
       id="path28"
       style="fill:#231f20;fill-opacity:1;fill-rule:nonzero;stroke:none;stroke-width:0.1"
       d="m 51.2305,29.7047 h -0.8403 l -0.1199,6.9605 h 0.984 c 0.7203,-3.9601 2.7363,-6.0246 5.8086,-6.0246 2.6164,0 4.0562,1.3203 4.0562,3.4328 0,1.0079 -0.3836,1.7996 -1.0562,2.2797 -0.8399,0.6 -2.184,0.8403 -3.9359,1.3203 -3.8403,1.0321 -5.6883,1.9922 -5.6883,5.1606 0,2.9762 1.9922,4.8961 5.1121,4.8961 1.7523,0 3.2887,-0.5758 4.4883,-1.6797 l 0.9359,1.4398 h 0.8883 l 0.264,-6.2406 h -0.9359 c -0.9121,3.5766 -2.8082,5.3766 -5.6406,5.3766 -2.1121,0 -3.3121,-1.0563 -3.3121,-2.9043 0,-2.3043 1.8,-2.568 4.9922,-3.3606 1.7281,-0.4316 3.1683,-0.7918 4.2726,-1.8 0.936,-0.864 1.4637,-2.1597 1.4637,-3.6961 0,-3.3363 -2.1117,-5.3047 -5.952,-5.3047 -1.8726,0 -3.6246,0.6723 -4.7765,1.8004 l -1.0082,-1.6562" /><path
       inkscape:connector-curvature="0"
       id="path30"
       style="fill:#231f20;fill-opacity:1;fill-rule:nonzero;stroke:none;stroke-width:0.1"
       d="m 63.2066,40.0492 v 0.9606 c 1.9676,0.1441 3.0961,1.848 3.2157,4.9683 h 1.0086 v -4.8726 h 3.4562 v -1.0563 h -3.5766 v -6.9363 c 0,-1.3684 0.2641,-2.0402 1.4161,-2.0402 1.3207,0 1.9203,1.0562 1.9925,3.264 h 0.8879 c 0,-0.0957 0,-0.2156 0,-0.3117 0,-2.9043 -1.3195,-4.4406 -3.7441,-4.4406 -2.1602,0 -2.7363,1.0562 -2.7363,3.3125 v 7.1523 h -1.92" /><path
       inkscape:connector-curvature="0"
       id="path32"
       style="fill:#231f20;fill-opacity:1;fill-rule:nonzero;stroke:none;stroke-width:0.1"
       d="m 77.6313,30.593 c 2.1113,0 2.9511,1.5597 2.9511,4.9441 0,3.3844 -0.8398,4.9684 -2.9277,4.9684 -2.0879,0 -2.9277,-1.584 -2.9277,-4.9684 0,-3.3601 0.8632,-4.9441 2.9043,-4.9441 z m 0.0234,10.8968 c 3.168,0 5.3769,-2.3765 5.3769,-5.9527 0,-3.5762 -2.2324,-5.9285 -5.3769,-5.9285 -3.1445,0 -5.4004,2.3523 -5.4004,5.9285 0,3.5762 2.2324,5.9527 5.4004,5.9527" /><path
       inkscape:connector-curvature="0"
       id="path34"
       style="fill:#231f20;fill-opacity:1;fill-rule:nonzero;stroke:none;stroke-width:0.1"
       d="m 83.6059,31.0012 1.0324,0.0476 c 0.6726,0.0239 0.7918,0.1918 0.7918,0.8883 v 7.2965 c 0,0.7918 -0.2871,0.9598 -1.3203,0.9598 -0.2157,0 -0.4551,-0.0239 -0.7196,-0.0239 v 0.936 l 4.1043,0.2883 v -2.3043 c 1.0801,1.5843 2.2805,2.3043 3.9368,2.3043 2.28,0 3.6238,-1.3684 3.6238,-3.8407 v -5.616 c 0,-0.6965 0.1445,-0.8644 0.7922,-0.8883 l 1.032,-0.0476 v -1.0086 h -5.8086 v 1.0086 l 1.0324,0.0476 c 0.6239,0.0239 0.7918,0.1918 0.7918,0.8883 v 5.7121 c 0,1.4403 -0.7918,2.2567 -2.2078,2.2567 -2.0168,0 -3.0723,-1.3446 -3.0723,-4.009 v -3.9598 c 0,-0.6723 0.0957,-0.8644 0.7918,-0.8883 l 1.0079,-0.0476 v -1.0086 h -5.8086 v 1.0086" /><path
       inkscape:connector-curvature="0"
       id="path36"
       style="fill:#231f20;fill-opacity:1;fill-rule:nonzero;stroke:none;stroke-width:0.1"
       d="m 98.0531,39.0656 c -0.1679,0.3598 -0.3593,0.6477 -0.5508,0.768 -0.289,0.1918 -0.7207,0.2641 -1.2968,0.2641 v 1.0078 h 5.5925 v -1.0078 c -0.24,0 -0.432,0 -0.6,0 -0.696,0 -0.96,-0.0723 -0.96,-0.5039 0,-0.1442 0.096,-0.3844 0.24,-0.7442 l 2.544,-5.8562 2.4,5.7601 c 0.048,0.1442 0.12,0.2879 0.12,0.5278 0,0.6722 -0.479,0.7925 -1.68,0.8164 v 1.0078 h 4.633 v -1.0078 c -0.888,0 -1.416,-0.4082 -1.8,-1.2965 l -4.057,-9.4324 C 101.39,26.4645 100.07,25 97.982,25 c -1.416,0 -2.2082,0.7203 -2.2082,1.8488 0,0.7918 0.5996,1.416 1.4395,1.416 0.7687,0 1.248,-0.4562 1.248,-1.1765 0,-0.4082 -0.1914,-0.6 -0.1914,-0.6957 0,-0.1684 0.1446,-0.2641 0.4317,-0.2641 0.7675,0 1.9684,1.2719 3.0004,3.768 l 0.168,0.3844 -3.8169,8.7847" /><path
       inkscape:connector-curvature="0"
       id="path38"
       style="fill:#231f20;fill-opacity:1;fill-rule:nonzero;stroke:none;stroke-width:0.1"
       d="m 117.902,32.2488 c 0,-0.8879 0.24,-1.1281 1.32,-1.1281 h 1.704 c 2.857,0 4.105,1.0082 4.105,3.6004 0,2.7363 -1.513,3.7203 -4.969,3.7203 h -2.16 z m 0,7.2489 h 1.92 c 3.096,0 4.465,0.7203 4.465,3.3843 0,2.4243 -1.08,3.3602 -3.673,3.3602 h -1.512 c -0.984,0 -1.2,-0.2402 -1.2,-1.0563 z m -5.089,-8.377 h 1.248 c 0.961,0 1.272,0.216 1.272,1.1523 v 12.7692 c 0,0.9359 -0.311,1.1516 -1.272,1.1516 h -1.248 v 1.1285 h 9.073 c 3.408,0 5.185,-1.4883 5.185,-4.2246 0,-2.0641 -1.345,-3.4321 -4.032,-4.0082 3.311,-0.4325 4.919,-1.8961 4.919,-4.4407 0,-2.9043 -2.255,-4.6562 -6.36,-4.6562 h -8.785 v 1.1281" /><path
       inkscape:connector-curvature="0"
       id="path40"
       style="fill:#231f20;fill-opacity:1;fill-rule:nonzero;stroke:none;stroke-width:0.1"
       d="m 133.526,31.0488 1.464,-0.0476 v -1.0086 h -6.313 v 1.0086 l 1.128,0.0476 c 0.672,0.0239 0.792,0.216 0.792,0.8883 v 7.2965 c 0,0.8402 -0.311,0.9359 -1.439,0.9359 -0.217,0 -0.456,0 -0.721,0 v 0.936 l 4.177,0.2883 v -3.3844 c 0.744,2.2801 1.968,3.4562 3.504,3.4562 1.297,0 2.184,-0.8879 2.184,-2.0402 0,-0.8879 -0.6,-1.4879 -1.392,-1.4879 -0.888,0 -1.416,0.552 -1.416,1.3684 0,0.4312 0.168,0.8156 0.48,1.0316 -0.048,0 -0.096,0 -0.144,0 -1.512,0 -3.096,-2.2801 -3.096,-5.8324 v -2.568 c 0,-0.6723 0.12,-0.8644 0.792,-0.8883" /><path
       inkscape:connector-curvature="0"
       id="path42"
       style="fill:#231f20;fill-opacity:1;fill-rule:nonzero;stroke:none;stroke-width:0.1"
       d="m 143.965,30.593 c 2.113,0 2.952,1.5597 2.952,4.9441 0,3.3844 -0.839,4.9684 -2.927,4.9684 -2.088,0 -2.929,-1.584 -2.929,-4.9684 0,-3.3601 0.864,-4.9441 2.904,-4.9441 z m 0.025,10.8968 c 3.168,0 5.376,-2.3765 5.376,-5.9527 0,-3.5762 -2.232,-5.9285 -5.376,-5.9285 -3.145,0 -5.401,2.3523 -5.401,5.9285 0,3.5762 2.233,5.9527 5.401,5.9527" /><path
       inkscape:connector-curvature="0"
       id="path44"
       style="fill:#231f20;fill-opacity:1;fill-rule:nonzero;stroke:none;stroke-width:0.1"
       d="m 155.821,30.593 c 2.112,0 2.952,1.5597 2.952,4.9441 0,3.3844 -0.84,4.9684 -2.928,4.9684 -2.088,0 -2.928,-1.584 -2.928,-4.9684 0,-3.3601 0.864,-4.9441 2.904,-4.9441 z m 0.024,10.8968 c 3.168,0 5.376,-2.3765 5.376,-5.9527 0,-3.5762 -2.231,-5.9285 -5.376,-5.9285 -3.144,0 -5.4,2.3523 -5.4,5.9285 0,3.5762 2.232,5.9527 5.4,5.9527" /><path
       inkscape:connector-curvature="0"
       id="path46"
       style="fill:#231f20;fill-opacity:1;fill-rule:nonzero;stroke:none;stroke-width:0.1"
       d="m 161.269,31.0012 1.08,0.0476 c 0.672,0.0239 0.817,0.216 0.817,0.8883 v 13.657 c 0,0.7922 -0.289,0.9602 -1.321,0.9602 -0.192,0 -0.432,-0.0238 -0.696,-0.0238 v 0.9359 l 4.2,0.2879 V 35.873 l 3.696,3.3844 c 0.168,0.168 0.288,0.4082 0.288,0.5281 0,0.3122 -0.383,0.4079 -1.223,0.4079 h -0.769 v 0.9121 h 6.145 v -0.9121 c -0.048,0 -0.096,0 -0.144,0 -1.56,0 -2.496,-0.7438 -3.72,-1.8719 l -1.224,-1.1281 3.768,-5.0164 c 0.6,-0.8161 1.272,-1.1282 2.376,-1.1758 v -1.0086 h -6.193 v 1.0086 l 0.721,0.0476 c 0.552,0.0239 0.84,0.0719 0.84,0.3598 0,0.1922 -0.096,0.3121 -0.216,0.4801 l -2.881,3.8886 -1.464,-1.2964 v -2.5438 c 0,-0.6965 0.145,-0.8644 0.817,-0.8883 l 1.055,-0.0476 v -1.0086 h -5.952 v 1.0086" /><path
       inkscape:connector-curvature="0"
       id="path48"
       style="fill:#990000;fill-opacity:1;fill-rule:nonzero;stroke:none;stroke-width:0.1"
       d="m 57.4063,22.3223 v -1.1285 h -1.2481 c -0.9602,0 -1.2715,-0.2395 -1.2715,-1.1516 v -9.6969 c 0,-3.04842 1.5117,-4.44061 4.7996,-4.44061 2.1606,0 3.6008,0.76836 4.2727,2.23203 0.3125,0.67226 0.3601,1.77656 0.3601,3.33628 v 7.5606 c 0,1.4644 -0.3125,2.1602 -1.7285,2.1602 h -1.0554 v 1.1285 h 6.6003 v -1.1285 h -0.8882 c -1.3684,0 -1.7524,-0.6239 -1.7524,-2.1602 v -7.6563 c 0,-4.70425 -1.7281,-6.79292 -6.648,-6.79292 -4.3449,0 -6.5531,1.94453 -6.5531,5.78472 v 9.6731 c 0,0.9121 -0.2633,1.1516 -1.2723,1.1516 h -1.3914 v 1.1285 h 7.7762" /><path
       inkscape:connector-curvature="0"
       id="path50"
       style="fill:#990000;fill-opacity:1;fill-rule:nonzero;stroke:none;stroke-width:0.1"
       d="m 66.9813,6.00117 1.0324,0.04766 c 0.6718,0.02383 0.7922,0.1918 0.7922,0.88828 v 7.29649 c 0,0.7918 -0.2883,0.9598 -1.3204,0.9598 -0.216,0 -0.4562,-0.0239 -0.7199,-0.0239 v 0.936 l 4.1039,0.2883 v -2.3043 c 1.0801,1.5843 2.2813,2.3043 3.9375,2.3043 2.2793,0 3.6231,-1.3684 3.6231,-3.8407 V 6.93711 c 0,-0.69648 0.1445,-0.86445 0.7929,-0.88828 L 80.2543,6.00117 V 4.99258 h -5.8086 v 1.00859 l 1.0332,0.04766 c 0.6231,0.02383 0.791,0.1918 0.791,0.88828 v 5.71209 c 0,1.4403 -0.791,2.2567 -2.207,2.2567 -2.0176,0 -3.0723,-1.3446 -3.0723,-4.009 V 6.93711 c 0,-0.67227 0.0957,-0.86445 0.791,-0.88828 L 72.7895,6.00117 V 4.99258 h -5.8082 v 1.00859" /><path
       inkscape:connector-curvature="0"
       id="path52"
       style="fill:#990000;fill-opacity:1;fill-rule:nonzero;stroke:none;stroke-width:0.1"
       d="m 85.1254,20.9301 c 0,-0.7918 -0.6484,-1.416 -1.4395,-1.416 -0.7929,0 -1.416,0.6718 -1.416,1.416 0,0.7683 0.6485,1.416 1.416,1.416 0.7676,0 1.4395,-0.6238 1.4395,-1.416 z M 80.6859,6.00117 81.8383,6.04883 c 0.6719,0.02383 0.8144,0.21601 0.8144,0.88828 v 7.29649 c 0,0.7918 -0.2871,0.9598 -1.3183,0.9598 -0.1934,0 -0.4336,-0.0239 -0.6973,-0.0239 v 0.936 l 4.2012,0.2883 V 6.93711 c 0,-0.69648 0.1426,-0.86445 0.8164,-0.88828 L 86.7094,6.00117 V 4.99258 h -6.0235 v 1.00859" /><path
       inkscape:connector-curvature="0"
       id="path54"
       style="fill:#990000;fill-opacity:1;fill-rule:nonzero;stroke:none;stroke-width:0.1"
       d="m 92.1566,4.60859 -4.1523,9.52931 c -0.3105,0.7434 -0.6465,0.9598 -1.5586,0.9598 -0.0723,0 -0.1211,0 -0.168,0 v 1.0078 h 5.375 v -1.0078 c -1.0078,-0.0239 -1.4394,-0.0961 -1.4394,-0.5524 0,-0.1437 0.0957,-0.3836 0.2637,-0.768 l 2.5918,-5.97652 2.1367,5.52072 c 0.1445,0.384 0.2402,0.6961 0.2402,0.9598 0,0.5042 -0.4551,0.8164 -1.3203,0.8164 -0.0723,0 -0.168,0 -0.2637,0 v 1.0078 H 98.518 V 15.0977 C 97.4379,15.0738 96.934,14.5453 96.477,13.4176 L 92.9008,4.60859 h -0.7442" /><path
       inkscape:connector-curvature="0"
       id="path56"
       style="fill:#990000;fill-opacity:1;fill-rule:nonzero;stroke:none;stroke-width:0.1"
       d="m 105.213,11.4016 c 0.625,0 0.84,0.1437 0.84,0.7679 0,2.184 -0.912,3.3602 -2.543,3.3602 -1.824,0 -2.713,-1.368 -2.761,-4.1281 z m -4.511,-1.51254 c 0,-2.54453 1.295,-4.0082 3.191,-4.0082 1.656,0 2.93,0.86367 3.816,2.59219 l 0.84,-0.47969 c -1.054,-2.25664 -2.759,-3.38477 -5.064,-3.38477 -3.024,0 -5.2073,2.32852 -5.2073,5.92851 0,3.5762 2.1603,5.9527 5.2073,5.9527 3.098,0 5.064,-2.1363 5.064,-5.6886 0,-0.1442 0,-0.2879 0,-0.4321 h -7.824 c 0,-0.1679 -0.023,-0.3121 -0.023,-0.48004" /><path
       inkscape:connector-curvature="0"
       id="path58"
       style="fill:#990000;fill-opacity:1;fill-rule:nonzero;stroke:none;stroke-width:0.1"
       d="m 113.95,6.04883 1.465,-0.04766 V 4.99258 h -6.313 v 1.00859 l 1.127,0.04766 c 0.672,0.02383 0.793,0.21601 0.793,0.88828 v 7.29649 c 0,0.8402 -0.313,0.9359 -1.441,0.9359 -0.215,0 -0.456,0 -0.719,0 v 0.936 l 4.176,0.2883 v -3.3844 c 0.744,2.2801 1.968,3.4562 3.504,3.4562 1.296,0 2.183,-0.8879 2.183,-2.0402 0,-0.8879 -0.6,-1.4879 -1.391,-1.4879 -0.888,0 -1.416,0.552 -1.416,1.3684 0,0.4312 0.168,0.8156 0.479,1.0316 -0.047,0 -0.096,0 -0.143,0 -1.513,0 -3.097,-2.2801 -3.097,-5.83242 V 6.93711 c 0,-0.67227 0.121,-0.86445 0.793,-0.88828" /><path
       inkscape:connector-curvature="0"
       id="path60"
       style="fill:#990000;fill-opacity:1;fill-rule:nonzero;stroke:none;stroke-width:0.1"
       d="m 120.284,9.38516 c 0.601,-2.47188 2.017,-3.76836 3.937,-3.76836 1.535,0 2.52,0.79179 2.52,1.99218 0,1.27188 -0.959,1.53594 -2.52,1.84805 -2.904,0.59997 -4.656,1.10387 -4.656,3.76877 0,1.9922 1.344,3.2398 3.336,3.2398 1.152,0 2.039,-0.216 3.023,-0.9359 l 0.698,0.8398 h 0.744 v -3.9843 h -0.744 c -0.672,2.0886 -1.873,3.1445 -3.577,3.1445 -1.345,0 -2.185,-0.7442 -2.185,-1.6563 0,-1.416 1.033,-1.5843 3,-1.9679 2.834,-0.5524 4.297,-1.2004 4.297,-3.60042 0,-2.30391 -1.512,-3.74453 -4.008,-3.74453 -1.129,0 -2.137,0.36054 -3.145,1.17617 l -0.793,-1.10391 h -0.791 v 4.75235 h 0.864" /><path
       inkscape:connector-curvature="0"
       id="path62"
       style="fill:#990000;fill-opacity:1;fill-rule:nonzero;stroke:none;stroke-width:0.1"
       d="m 133.387,20.9301 c 0,-0.7918 -0.646,-1.416 -1.439,-1.416 -0.791,0 -1.416,0.6718 -1.416,1.416 0,0.7683 0.648,1.416 1.416,1.416 0.767,0 1.439,-0.6238 1.439,-1.416 z M 128.948,6.00117 130.1,6.04883 c 0.672,0.02383 0.817,0.21601 0.817,0.88828 v 7.29649 c 0,0.7918 -0.29,0.9598 -1.321,0.9598 -0.193,0 -0.431,-0.0239 -0.697,-0.0239 v 0.936 l 4.201,0.2883 V 6.93711 c 0,-0.69648 0.145,-0.86445 0.817,-0.88828 l 1.056,-0.04766 V 4.99258 h -6.025 v 1.00859" /><path
       inkscape:connector-curvature="0"
       id="path64"
       style="fill:#990000;fill-opacity:1;fill-rule:nonzero;stroke:none;stroke-width:0.1"
       d="m 134.731,15.0492 v 0.9606 c 1.969,0.1441 3.098,1.848 3.217,4.9683 h 1.008 v -4.8726 h 3.457 v -1.0563 h -3.577 V 8.11289 c 0,-1.36836 0.264,-2.04023 1.416,-2.04023 1.321,0 1.92,1.05625 1.993,3.26406 h 0.888 c 0,-0.0957 0,-0.21563 0,-0.31172 0,-2.9043 -1.32,-4.44062 -3.746,-4.44062 -2.16,0 -2.736,1.05625 -2.736,3.3125 v 7.15232 h -1.92" /><path
       inkscape:connector-curvature="0"
       id="path66"
       style="fill:#990000;fill-opacity:1;fill-rule:nonzero;stroke:none;stroke-width:0.1"
       d="m 145.028,14.0656 c -0.168,0.3598 -0.361,0.6477 -0.553,0.768 -0.287,0.1918 -0.721,0.2641 -1.295,0.2641 v 1.0078 h 5.592 v -1.0078 c -0.24,0 -0.432,0 -0.6,0 -0.697,0 -0.961,-0.0723 -0.961,-0.5039 0,-0.1442 0.096,-0.3844 0.241,-0.7442 l 2.545,-5.85624 2.4,5.76014 c 0.047,0.1442 0.119,0.2879 0.119,0.5278 0,0.6722 -0.48,0.7925 -1.68,0.8164 v 1.0078 h 4.633 v -1.0078 c -0.888,0 -1.418,-0.4082 -1.801,-1.2965 L 149.612,4.36875 C 148.364,1.46445 147.043,0 144.956,0 c -1.416,0 -2.209,0.720313 -2.209,1.84883 0,0.7918 0.601,1.41601 1.441,1.41601 0.768,0 1.248,-0.45625 1.248,-1.17656 0,-0.4082 -0.193,-0.6 -0.193,-0.6957 0,-0.16836 0.144,-0.26406 0.433,-0.26406 0.768,0 1.967,1.27187 3,3.76796 l 0.168,0.38438 -3.816,8.78474" /></g></svg>